<?xml version="1.0" standalone="no"?>
<!DOCTYPE svg PUBLIC "-//W3C//DTD SVG 20010904//EN"
 "http://www.w3.org/TR/2001/REC-SVG-20010904/DTD/svg10.dtd">
<svg version="1.0" xmlns="http://www.w3.org/2000/svg"
 width="9911.000000pt" height="4682.000000pt" viewBox="0 0 9911.000000 4682.000000"
 preserveAspectRatio="xMidYMid meet">
<metadata>
Created by potrace 1.13, written by Peter Selinger 2001-2015
</metadata>
<g transform="translate(0.000000,4682.000000) scale(0.100000,-0.100000)"
fill="#000000" stroke="none">
<path d="M48890 46143 c-69 -2 -305 -12 -526 -23 -221 -11 -524 -20 -675 -20
-259 0 -277 -1 -314 -21 -55 -29 -178 -27 -450 7 -34 4 -90 -1 -165 -15 -63
-12 -218 -35 -345 -51 -876 -116 -1475 -227 -2090 -385 -115 -30 -366 -90
-556 -134 -198 -46 -387 -96 -440 -117 -52 -19 -267 -94 -479 -166 -664 -224
-975 -345 -1039 -400 -39 -35 -62 -46 -291 -139 -407 -165 -959 -426 -1325
-624 -407 -221 -1408 -801 -1570 -908 -889 -592 -1655 -1224 -2406 -1983 -260
-264 -366 -380 -764 -834 -137 -157 -273 -310 -301 -341 -29 -31 -61 -76 -71
-100 -11 -24 -68 -107 -128 -184 -515 -668 -1105 -1649 -1463 -2435 -78 -173
-190 -431 -324 -750 -61 -145 -71 -176 -78 -255 -7 -74 -16 -109 -56 -200 -80
-186 -157 -441 -272 -900 -127 -505 -167 -686 -217 -980 -112 -670 -163 -1384
-152 -2145 5 -343 35 -995 53 -1160 49 -457 137 -954 245 -1385 28 -110 102
-385 164 -611 92 -328 125 -433 166 -520 66 -140 89 -200 214 -539 137 -375
251 -638 431 -996 192 -384 586 -1095 703 -1269 42 -63 129 -191 192 -285 62
-93 134 -210 158 -260 81 -165 518 -733 896 -1165 410 -467 1037 -1089 1440
-1425 44 -37 204 -160 355 -275 151 -114 325 -249 385 -299 61 -51 164 -129
229 -174 272 -188 361 -254 444 -332 69 -66 105 -90 172 -121 163 -74 275
-153 317 -225 20 -34 66 -60 166 -93 119 -40 149 -56 442 -243 201 -128 1032
-566 1132 -597 13 -4 23 -17 25 -32 3 -22 32 -41 223 -141 186 -98 274 -137
567 -248 192 -73 363 -144 381 -157 35 -28 46 -47 136 -253 325 -744 905
-1341 1666 -1715 252 -124 624 -266 672 -257 39 7 119 -10 191 -42 39 -17 84
-31 102 -31 65 0 60 -241 58 3112 -3 3020 -3 3043 -23 3083 -30 60 -58 58
-251 -13 -494 -185 -875 -358 -1149 -520 -199 -118 -491 -388 -854 -789 -231
-255 -277 -288 -373 -263 -23 6 -128 58 -233 114 -104 57 -302 163 -440 236
-292 156 -517 288 -666 393 -59 41 -228 154 -375 252 -433 286 -811 561 -1244
905 -102 81 -212 161 -245 179 -107 56 -191 129 -518 446 -476 461 -743 757
-1199 1330 -458 576 -835 1172 -1187 1875 -191 383 -276 578 -502 1153 -147
375 -159 411 -159 484 0 35 -15 98 -45 190 -172 531 -282 1099 -330 1703 -9
107 -29 326 -46 485 -21 201 -32 366 -36 537 -6 269 0 369 47 718 16 118 31
280 35 360 34 811 248 1708 667 2800 69 179 131 343 138 365 19 59 249 546
346 733 285 549 636 1086 1093 1672 714 917 1501 1675 2519 2425 246 181 247
182 292 189 31 5 131 63 388 228 453 290 681 426 932 553 113 57 246 129 295
160 105 66 279 152 455 225 69 28 154 67 190 86 122 66 339 163 557 250 125
50 246 106 283 131 96 63 743 289 1280 447 916 271 2154 489 3200 565 996 73
1627 79 2390 22 140 -11 314 -22 385 -26 227 -10 350 -25 770 -91 794 -125
962 -156 1415 -259 129 -29 291 -65 359 -80 155 -33 280 -74 385 -125 44 -22
167 -64 271 -95 448 -131 973 -318 1455 -517 612 -253 734 -311 883 -419 39
-28 78 -49 93 -49 64 0 741 -376 1272 -707 75 -46 182 -106 239 -133 126 -59
226 -125 408 -265 77 -59 212 -162 300 -228 793 -596 1476 -1246 2125 -2022
209 -250 528 -655 617 -783 84 -121 181 -289 219 -380 22 -55 35 -74 62 -88
55 -29 83 -75 92 -147 10 -82 19 -99 96 -174 35 -35 81 -89 102 -120 46 -68
424 -828 511 -1025 208 -473 368 -960 540 -1644 167 -665 200 -869 241 -1489
26 -396 46 -599 76 -774 29 -173 30 -242 4 -381 -11 -62 -26 -217 -35 -375
-20 -361 -40 -608 -71 -855 -50 -408 -132 -820 -183 -925 -16 -33 -37 -100
-46 -150 -71 -387 -203 -803 -434 -1370 -43 -104 -92 -230 -111 -280 -36 -100
-59 -143 -106 -195 -20 -22 -33 -51 -38 -78 -9 -58 -38 -114 -87 -167 -31 -34
-44 -59 -55 -107 -20 -84 -89 -228 -170 -351 -37 -56 -126 -201 -199 -322
-276 -461 -535 -833 -882 -1268 -224 -279 -379 -457 -859 -982 -118 -129 -230
-229 -332 -296 -40 -26 -134 -106 -210 -177 -243 -230 -504 -446 -865 -716
-655 -490 -1241 -863 -1767 -1126 -80 -40 -210 -112 -290 -160 -200 -120 -431
-244 -515 -276 -89 -33 -148 -30 -208 13 -23 16 -112 112 -197 213 -543 646
-1121 1043 -1885 1296 -243 80 -347 102 -403 86 -77 -23 -74 -2 -77 -566 -2
-341 -6 -514 -14 -543 -15 -55 -53 -99 -99 -115 -29 -9 -363 -14 -1452 -18
-1342 -5 -1418 -6 -1470 -24 -146 -49 -250 -130 -298 -233 -24 -51 -27 -70
-27 -158 0 -121 18 -167 96 -250 60 -64 125 -103 224 -137 l70 -23 1420 -5
1420 -5 41 -22 c30 -16 48 -36 65 -70 l23 -47 0 -982 -1 -981 -24 -49 c-19
-38 -34 -54 -71 -72 l-46 -23 -1284 0 c-1393 0 -1569 -4 -1661 -37 -113 -41
-204 -129 -249 -242 -17 -42 -22 -77 -22 -150 -1 -85 2 -101 26 -145 30 -56
111 -138 178 -181 l45 -29 1485 -5 c1164 -5 1493 -8 1523 -18 58 -20 104 -67
124 -125 15 -45 17 -106 19 -462 1 -225 3 -420 3 -432 1 -13 11 -33 22 -44 30
-30 80 -22 291 46 319 105 653 247 876 373 48 28 112 57 142 65 63 19 228 125
376 242 121 97 380 355 493 490 182 219 248 315 281 407 17 48 77 176 133 285
55 109 119 234 141 278 50 97 49 97 331 188 237 77 413 150 796 327 804 374
1436 722 2130 1175 335 220 814 561 839 600 8 13 92 81 185 151 496 371 851
681 1358 1183 431 427 778 801 937 1011 111 146 212 255 278 301 45 31 101
106 117 157 3 13 75 114 159 225 410 544 762 1095 1089 1703 84 157 309 635
443 941 193 441 351 879 454 1253 28 102 74 257 101 345 69 219 116 408 134
542 9 62 29 152 46 200 65 192 88 307 99 488 5 96 19 193 43 306 46 219 67
379 74 574 4 128 9 168 24 201 18 39 19 77 19 915 0 855 0 876 -20 914 -16 32
-20 59 -20 150 0 183 -43 472 -107 720 -10 40 -17 127 -20 258 -3 137 -9 212
-19 240 -8 22 -48 194 -90 381 -97 442 -128 557 -231 871 -230 701 -444 1232
-737 1831 -206 419 -360 694 -560 999 -62 94 -133 213 -158 265 -25 52 -88
151 -139 220 -112 152 -154 219 -175 285 -24 74 -300 437 -669 880 -491 589
-909 1026 -1390 1455 -132 117 -301 271 -375 340 -74 70 -154 137 -176 148
-23 12 -89 61 -145 110 -543 465 -1266 970 -2019 1409 -326 190 -438 249 -545
289 -198 73 -377 168 -490 259 -28 23 -65 39 -122 53 -106 27 -220 81 -362
171 -62 39 -120 71 -130 71 -39 0 -135 36 -282 106 -86 40 -284 121 -440 178
-156 57 -489 181 -739 276 -492 188 -487 186 -885 295 -559 153 -1183 301
-1836 434 -145 30 -217 40 -276 38 -66 -1 -85 2 -115 21 -25 15 -51 22 -89 22
-32 0 -72 9 -98 20 -33 15 -65 20 -134 20 -69 0 -100 5 -131 20 -36 17 -67 19
-251 22 -176 3 -215 6 -244 21 -20 10 -56 17 -87 17 -29 0 -77 9 -106 19 -45
17 -88 20 -292 23 -222 4 -239 5 -253 24 -13 18 -30 19 -431 19 -394 0 -422 1
-507 22 -97 23 -275 32 -515 26z"/>
<path d="M48085 42658 c-60 -15 -205 -82 -585 -269 l-505 -249 -135 -10 c-205
-16 -143 -2 -1170 -255 -520 -127 -818 -222 -1069 -341 -67 -32 -134 -56 -165
-60 -87 -11 -205 -53 -366 -131 -85 -41 -186 -87 -225 -102 -38 -15 -110 -53
-158 -84 -82 -53 -92 -57 -148 -57 -54 0 -66 -4 -120 -40 -43 -30 -59 -47 -59
-64 0 -20 -26 -36 -217 -126 -165 -78 -293 -149 -525 -292 -168 -103 -315
-188 -325 -188 -11 0 -46 -20 -79 -45 -32 -24 -65 -45 -73 -45 -47 -1 -677
-451 -981 -701 -69 -56 -163 -130 -210 -163 -47 -32 -127 -101 -178 -153 -74
-73 -99 -93 -121 -93 -32 0 -9 22 -436 -425 -414 -434 -654 -705 -798 -902
-133 -183 -295 -390 -527 -673 -296 -361 -443 -554 -598 -787 -482 -723 -824
-1449 -1033 -2198 -28 -99 -66 -217 -85 -263 -146 -347 -95 -657 175 -1069 81
-124 153 -203 204 -224 37 -16 94 9 101 43 3 13 7 120 10 238 8 288 33 480
107 813 168 748 495 1553 909 2232 170 279 290 450 674 961 246 329 276 364
324 390 37 21 55 38 62 60 14 40 427 464 540 554 47 36 155 129 240 205 467
416 974 810 1475 1144 324 216 483 312 860 521 646 358 1336 680 1950 910 165
62 377 145 470 185 147 63 248 95 740 235 314 89 582 168 596 176 15 7 69 53
120 101 52 49 114 105 139 125 48 39 164 98 192 98 20 0 66 53 74 86 4 17 44
48 143 110 75 48 164 108 198 135 38 30 73 49 88 49 41 0 91 26 142 73 27 24
60 47 76 51 41 10 34 37 -23 88 -27 25 -50 52 -50 60 0 30 36 48 106 55 66 6
72 8 126 58 31 29 69 56 84 59 16 4 47 23 69 43 22 19 64 49 94 67 72 41 84
61 52 87 -29 24 -71 23 -176 -3z"/>
<path d="M48671 42299 c-152 -18 -303 -73 -398 -146 -27 -20 -69 -48 -95 -62
-50 -28 -157 -114 -242 -196 -28 -27 -85 -68 -126 -89 -94 -50 -217 -140 -225
-165 -8 -25 10 -68 34 -80 31 -17 58 -13 186 25 343 101 823 174 1151 174 67
0 86 4 107 21 25 19 42 20 289 23 215 3 312 9 533 35 366 42 522 47 775 27
113 -9 356 -25 540 -36 600 -36 970 -73 1255 -126 71 -13 168 -27 215 -30 47
-4 88 -12 92 -18 4 -6 31 -12 60 -13 59 -4 159 -34 230 -69 40 -21 62 -24 150
-24 81 0 112 -5 147 -20 55 -25 121 -26 152 -2 l22 19 -24 43 c-22 39 -29 45
-79 56 -30 7 -109 34 -175 60 -77 30 -147 50 -195 56 -41 5 -122 25 -180 43
-104 33 -143 42 -460 110 -90 20 -211 51 -268 70 -65 22 -123 35 -156 35 -29
0 -106 15 -175 35 -85 24 -161 38 -249 45 -70 6 -203 22 -297 36 -93 14 -260
38 -370 55 -117 17 -265 32 -355 35 -104 4 -178 12 -225 25 -59 16 -102 18
-280 17 -183 -2 -217 1 -265 17 -51 17 -94 19 -540 21 -267 1 -518 -2 -559 -7z"/>
<path d="M50555 41193 c-679 -17 -1349 -80 -1895 -178 -748 -135 -1952 -420
-2110 -500 -56 -29 -119 -95 -127 -136 -3 -16 -23 -46 -46 -67 -82 -76 -104
-104 -116 -141 -6 -22 -18 -41 -26 -44 -35 -14 -138 -165 -216 -319 -45 -89
-112 -208 -150 -264 -72 -105 -132 -224 -144 -284 -4 -19 -44 -96 -90 -170
-128 -209 -161 -286 -168 -395 -4 -62 -17 -87 -61 -114 -49 -31 -66 -81 -66
-197 0 -122 -12 -149 -88 -205 l-61 -44 -1 -60 c-1 -33 -5 -80 -10 -105 -7
-38 -6 -48 10 -64 18 -18 18 -20 -20 -70 -22 -29 -47 -81 -59 -121 -12 -38
-29 -81 -38 -94 -10 -16 -19 -62 -24 -130 -4 -58 -17 -137 -29 -176 -60 -200
-91 -351 -97 -470 -3 -66 -12 -142 -20 -170 -9 -31 -18 -125 -23 -245 -8 -195
-11 -208 -59 -340 -18 -49 -20 -80 -21 -268 0 -178 -3 -218 -16 -245 -49 -94
-39 -812 18 -1357 11 -109 24 -323 28 -485 6 -240 11 -303 28 -365 11 -41 23
-102 26 -135 7 -58 52 -306 62 -333 12 -36 250 294 302 419 55 133 268 465
362 564 57 60 112 137 170 235 17 29 64 84 105 122 46 43 87 93 110 134 45 79
103 150 262 316 67 71 145 164 173 206 70 104 548 570 925 902 306 269 642
524 893 676 70 43 168 110 219 150 208 163 470 327 844 529 181 98 240 125
295 136 38 7 72 14 77 15 4 1 28 2 55 3 46 1 48 3 67 43 29 61 58 78 145 84
54 4 81 11 95 24 28 26 222 130 410 220 259 124 540 232 741 284 34 9 113 41
175 71 63 30 134 57 159 61 25 3 141 37 259 75 809 263 1572 426 2316 494 120
11 198 24 235 37 42 15 96 22 225 29 201 10 269 24 273 55 3 19 13 23 75 33
40 6 152 16 250 23 254 17 967 -10 1202 -47 88 -13 221 -33 295 -45 74 -11
209 -24 300 -29 l165 -8 202 -66 c188 -61 290 -87 406 -102 44 -6 47 -8 47
-36 l0 -29 -341 0 c-332 0 -342 1 -427 25 -229 65 -485 75 -807 31 -235 -31
-310 -39 -700 -71 -459 -38 -658 -64 -930 -125 -71 -16 -167 -33 -212 -39 -46
-6 -123 -24 -173 -41 -50 -16 -108 -30 -129 -30 -21 0 -78 -7 -126 -15 -85
-15 -140 -35 -385 -144 -113 -49 -117 -50 -214 -51 -79 0 -119 -6 -200 -29
-117 -34 -276 -95 -461 -176 -71 -31 -208 -88 -303 -126 -372 -149 -810 -364
-1192 -584 -113 -65 -278 -160 -367 -212 -323 -185 -581 -360 -863 -586 -150
-119 -150 -120 -150 -161 0 -39 -3 -42 -51 -69 -60 -34 -141 -100 -267 -217
-65 -61 -105 -91 -135 -100 -74 -22 -135 -58 -169 -101 -47 -59 -72 -84 -176
-172 -51 -43 -119 -112 -153 -152 -47 -57 -72 -78 -114 -96 -31 -14 -55 -31
-55 -39 -1 -26 -218 -273 -258 -293 -23 -12 -65 -54 -112 -114 -41 -52 -106
-130 -143 -172 -39 -44 -82 -105 -101 -146 -28 -58 -47 -81 -114 -137 -106
-90 -149 -140 -180 -207 -14 -31 -79 -127 -144 -213 l-118 -158 14 -35 c8 -19
21 -35 29 -35 8 0 48 16 89 35 92 42 196 71 308 85 156 19 265 12 685 -43 105
-14 253 -33 330 -42 182 -23 356 -66 395 -99 31 -26 240 -96 420 -141 229 -57
342 -107 453 -204 37 -32 94 -72 125 -89 81 -43 359 -154 553 -221 92 -32 195
-74 231 -94 91 -51 234 -160 471 -361 246 -208 338 -279 463 -358 l93 -58 84
0 c74 0 86 -3 104 -22 52 -56 15 -91 -112 -104 -61 -6 -73 -11 -101 -41 -17
-18 -38 -33 -45 -34 -8 0 -54 -1 -104 -2 -89 -2 -92 -3 -231 -70 -126 -59
-149 -67 -201 -67 -61 0 -162 -29 -239 -68 -70 -36 -246 -90 -379 -116 -354
-71 -376 -77 -447 -108 -46 -20 -62 -38 -36 -38 20 0 -142 -75 -212 -98 -36
-12 -99 -24 -140 -26 -46 -2 -133 -20 -225 -45 -183 -51 -352 -81 -452 -81
-66 0 -84 -4 -147 -35 -50 -25 -100 -40 -171 -51 -55 -9 -188 -33 -295 -55
-381 -75 -647 -116 -1417 -214 -282 -36 -557 -72 -610 -81 -77 -13 -191 -18
-525 -21 l-427 -5 -7 -35 c-9 -46 4 -81 39 -107 27 -20 39 -21 255 -20 133 1
332 10 482 23 148 12 338 21 453 21 l198 0 61 31 c54 27 78 32 217 45 152 14
510 59 876 109 99 13 266 34 370 45 240 27 374 50 650 111 121 27 364 74 539
105 284 48 385 68 531 103 22 6 144 32 270 60 189 41 254 51 365 55 154 6 211
20 290 70 81 52 84 53 230 71 266 33 424 75 569 151 69 36 93 44 138 44 42 0
61 5 87 25 37 28 107 55 144 55 28 0 266 71 319 96 17 8 37 14 45 14 7 0 33
11 57 25 28 17 59 25 90 25 59 0 128 31 143 65 10 23 16 25 74 25 50 0 78 7
136 33 40 19 87 45 103 59 26 22 43 26 120 30 72 4 114 14 210 48 66 23 148
50 182 60 l63 19 15 -22 c19 -27 19 -61 1 -76 -7 -6 -46 -22 -86 -36 -134 -46
-233 -130 -299 -256 -19 -35 -44 -77 -55 -92 -33 -45 -132 -105 -210 -128 -88
-26 -148 -60 -175 -98 -28 -39 -27 -41 14 -41 30 0 35 -4 35 -22 1 -51 36
-102 120 -173 142 -120 223 -237 249 -363 6 -29 11 -97 11 -151 0 -146 12
-176 163 -414 38 -60 81 -153 133 -285 89 -228 125 -303 189 -396 25 -37 48
-80 51 -95 4 -19 -7 -57 -35 -123 -43 -100 -52 -167 -30 -211 6 -12 32 -44 58
-70 l46 -49 -30 -24 c-114 -90 -669 -494 -679 -494 -6 0 -29 -9 -51 -20 -22
-11 -51 -20 -65 -20 -17 0 -113 -55 -262 -150 -195 -124 -242 -150 -273 -150
-27 0 -48 -9 -79 -34 -23 -19 -107 -69 -186 -111 -148 -79 -216 -123 -259
-169 -18 -19 -34 -26 -63 -26 -48 0 -91 -17 -165 -68 -82 -55 -569 -303 -683
-347 -52 -20 -115 -47 -140 -61 -127 -70 -352 -178 -490 -237 -487 -205 -632
-265 -790 -323 -96 -36 -258 -99 -360 -139 -102 -41 -257 -95 -345 -120 -194
-55 -269 -83 -402 -146 -107 -51 -124 -69 -102 -111 26 -50 93 -129 142 -166
29 -21 61 -55 72 -75 15 -28 35 -43 94 -71 114 -53 196 -69 321 -63 129 6 200
27 381 113 131 63 231 91 272 78 10 -3 30 5 49 21 49 41 104 66 418 183 162
61 493 189 735 284 373 147 440 176 443 194 2 16 18 27 60 42 31 11 88 32 125
46 38 15 89 26 115 26 44 0 51 4 102 55 31 31 63 55 75 55 76 0 285 109 285
149 0 12 22 21 88 37 110 27 219 77 303 141 69 52 244 129 349 153 133 31 326
121 527 246 55 35 108 64 116 64 25 0 75 -48 87 -84 9 -29 4 -60 -45 -242 -81
-305 -103 -377 -150 -499 -137 -353 -317 -645 -703 -1145 -309 -399 -461 -553
-673 -682 -172 -105 -390 -158 -586 -144 -89 7 -133 -1 -133 -24 0 -15 106
-49 219 -69 117 -21 165 -38 221 -76 45 -30 598 -216 757 -253 106 -26 128
-35 170 -70 85 -70 113 -78 338 -88 78 -4 127 -11 140 -20 16 -11 105 -14 488
-14 446 0 470 1 485 19 24 26 486 101 624 101 67 0 115 6 158 19 81 26 120 11
120 -43 0 -19 -145 -82 -218 -94 -65 -11 -122 -40 -145 -71 -22 -32 -97 -42
-357 -51 -140 -5 -282 -13 -315 -19 -127 -23 -320 -81 -319 -97 0 -5 65 -43
144 -84 147 -77 148 -78 223 -184 11 -16 27 -26 42 -26 13 0 40 -14 59 -30 43
-38 128 -77 186 -85 107 -15 320 61 399 143 35 36 69 57 141 88 55 24 313 172
613 353 513 308 521 313 775 514 142 111 283 219 314 239 31 21 67 51 79 67
16 22 38 34 84 46 50 14 66 23 81 49 10 17 20 42 21 56 1 13 9 30 17 36 25 18
8 24 -64 24 -74 0 -123 -15 -270 -81 -76 -34 -112 -44 -181 -50 -85 -8 -134
-23 -299 -92 -47 -20 -119 -41 -160 -47 -41 -6 -169 -29 -285 -51 -330 -61
-397 -69 -645 -69 -149 0 -289 -7 -415 -20 -108 -11 -264 -20 -362 -20 -166 0
-173 1 -173 20 0 19 -7 20 -195 20 -154 0 -202 3 -225 15 -27 14 -48 50 -37
62 3 2 79 9 169 14 181 10 191 12 503 94 121 31 382 96 580 144 331 80 360 89
363 109 6 42 160 112 487 222 154 52 242 90 465 202 712 356 1260 704 1690
1073 782 671 1359 1373 1826 2222 129 234 312 621 438 923 31 74 60 142 65
151 6 9 7 26 4 38 -4 14 2 30 15 44 18 19 20 28 12 62 -14 58 -12 145 6 275 9
66 12 138 9 169 -6 48 -4 56 19 80 36 38 47 74 56 191 9 118 23 160 54 160 12
1 32 10 46 21 l25 21 0 307 c0 255 3 316 17 366 23 82 38 321 38 596 0 369
-26 649 -101 1094 -84 496 -171 875 -290 1258 -35 112 -42 127 -62 127 -19 1
-34 28 -110 203 -48 111 -120 288 -161 392 -133 345 -261 614 -440 927 -53 92
-96 172 -96 178 0 20 -31 74 -76 132 -24 31 -53 76 -63 101 -11 24 -32 54 -48
65 -23 16 -34 37 -47 86 -23 83 -34 97 -92 116 -44 15 -52 23 -84 81 -38 68
-75 93 -108 73 -44 -28 -17 -107 54 -157 l44 -31 0 -165 c0 -179 1 -184 61
-242 45 -43 86 -272 74 -405 -8 -85 -15 -98 -44 -89 -34 10 -44 43 -51 155 -7
105 -27 168 -63 198 -12 10 -15 5 -21 -34 -3 -26 -6 -69 -6 -96 0 -27 -7 -64
-14 -83 -19 -44 -64 -91 -77 -78 -16 16 -28 246 -22 411 6 165 -6 326 -32 429
-9 32 -51 130 -94 218 -43 88 -111 225 -150 305 -39 80 -101 186 -137 235 -36
50 -74 107 -84 127 -32 60 -23 158 15 158 10 0 5 16 -18 56 -42 73 -99 138
-135 153 -15 7 -48 39 -72 72 -45 61 -96 109 -141 129 -13 6 -35 27 -49 47
-13 20 -135 141 -271 269 -207 196 -254 236 -295 250 -52 17 -127 68 -233 159
-35 30 -80 62 -100 71 -20 9 -64 42 -97 73 -62 57 -153 108 -231 132 -31 9
-48 22 -63 45 -26 46 -88 83 -383 234 -879 449 -1734 763 -2653 974 -608 139
-1135 217 -1669 246 -437 23 -1178 34 -1610 23z"/>
<path d="M45150 40049 c-19 -12 -47 -31 -61 -44 -15 -12 -90 -45 -168 -75 -78
-29 -166 -67 -195 -85 -29 -17 -98 -49 -152 -70 -252 -97 -511 -222 -976 -471
-382 -204 -493 -271 -888 -527 -484 -315 -551 -356 -607 -373 -48 -15 -95 -48
-278 -193 -230 -184 -503 -414 -815 -686 -148 -130 -243 -225 -471 -476 -422
-463 -551 -613 -742 -861 -275 -358 -637 -910 -840 -1284 -322 -590 -623
-1485 -687 -2039 -6 -55 -27 -161 -46 -237 -46 -185 -54 -253 -45 -380 9 -116
26 -158 62 -158 29 0 105 -55 174 -126 45 -46 71 -65 104 -74 24 -6 131 -61
238 -122 233 -132 333 -179 518 -248 200 -73 364 -146 407 -180 29 -24 47 -30
84 -30 28 0 97 -17 180 -45 74 -25 158 -47 187 -50 29 -2 97 -23 152 -45 123
-51 240 -80 323 -80 53 0 68 -4 104 -30 23 -17 61 -35 84 -41 27 -7 44 -18 47
-30 5 -18 16 -19 145 -19 118 0 147 -3 185 -20 24 -11 79 -25 122 -31 43 -6
89 -15 104 -21 14 -6 125 -14 246 -18 212 -8 224 -9 344 -44 68 -20 157 -43
197 -51 74 -15 229 -19 274 -6 l24 7 -35 27 c-19 14 -76 38 -125 52 -104 30
-156 61 -174 104 -10 26 -10 39 5 83 16 50 92 179 113 192 6 3 35 43 65 89 31
45 115 147 187 227 72 80 158 180 190 223 104 136 159 281 160 419 0 50 3 59
27 78 l28 22 7 -34 c4 -18 19 -105 33 -193 31 -188 59 -304 85 -356 11 -20 33
-88 51 -150 42 -151 67 -206 125 -270 56 -62 104 -160 135 -275 18 -67 22
-109 23 -271 l1 -193 110 0 c61 0 189 -7 285 -15 180 -15 226 -11 275 21 60
39 58 101 -6 261 -130 325 -212 602 -434 1468 -93 364 -142 687 -187 1250 -25
309 -13 1707 16 1850 8 39 17 135 21 215 8 182 20 257 55 345 26 63 29 85 33
220 5 171 22 241 88 362 37 68 39 77 39 158 0 69 5 97 25 145 14 33 25 66 25
73 0 8 16 46 35 83 28 57 35 80 35 132 0 46 6 76 24 110 13 26 26 69 30 96 3
27 30 106 60 175 29 69 59 144 66 166 6 22 34 78 60 125 40 72 49 96 55 158 9
91 46 168 95 199 69 43 70 45 70 138 0 91 11 125 50 160 46 40 158 223 169
275 6 28 18 67 26 88 9 20 155 260 325 532 l310 495 76 59 c41 33 77 63 80 68
7 12 -34 76 -56 88 -28 15 -51 12 -90 -11z"/>
<path d="M36468 34978 c-23 -35 -132 -375 -172 -533 -41 -166 -94 -432 -132
-675 -40 -251 -40 -439 0 -600 15 -63 35 -144 44 -180 16 -67 129 -300 197
-405 21 -32 48 -83 59 -111 17 -41 69 -105 246 -298 124 -135 232 -248 242
-251 31 -11 95 -92 116 -148 20 -53 45 -141 177 -632 152 -566 237 -767 569
-1350 264 -463 378 -695 460 -938 88 -263 316 -666 781 -1382 110 -170 223
-346 250 -390 76 -124 499 -626 776 -921 75 -80 100 -101 133 -109 32 -8 58
-27 117 -90 43 -46 81 -96 88 -117 7 -23 26 -46 51 -63 21 -15 51 -44 66 -66
14 -21 31 -39 37 -39 5 0 60 -49 122 -108 174 -168 545 -463 640 -511 44 -22
114 -68 155 -101 203 -166 242 -194 331 -240 53 -27 101 -56 108 -64 7 -8 40
-33 75 -55 34 -23 68 -51 74 -64 6 -12 13 -85 15 -162 4 -126 10 -162 56 -357
37 -155 54 -252 60 -335 10 -127 18 -158 49 -186 23 -21 88 -33 127 -23 14 4
45 24 68 45 23 21 84 60 135 87 105 55 141 92 178 182 31 74 30 143 0 302 -50
253 -59 507 -31 806 18 191 93 715 141 983 102 577 266 1213 479 1861 166 504
437 1261 567 1585 162 401 179 454 174 530 -2 33 -4 81 -5 108 l-1 47 -277 0
c-153 0 -307 -5 -343 -11 -98 -16 -246 -14 -318 5 -35 9 -85 16 -111 16 -52 0
-134 -24 -151 -45 -6 -7 -27 -71 -46 -141 -79 -288 -333 -1017 -388 -1114 -45
-78 -89 -182 -100 -235 -4 -17 -10 -73 -15 -125 -7 -81 -15 -111 -53 -200 -53
-120 -104 -351 -115 -510 -5 -86 -9 -98 -34 -128 -48 -54 -67 -104 -89 -225
-11 -64 -25 -128 -30 -142 -6 -15 -10 -40 -10 -56 0 -68 -65 -86 -121 -33 -25
24 -26 32 -32 147 -7 150 -31 245 -126 498 -130 346 -140 415 -172 1199 -13
316 -13 318 36 625 15 97 25 202 25 265 0 123 15 165 70 192 30 15 65 18 238
18 l202 0 12 26 c22 47 2 59 -87 56 -109 -4 -231 20 -396 78 -88 30 -161 50
-187 50 -35 0 -45 4 -49 19 -5 18 -17 20 -182 23 l-177 3 -39 31 c-111 87
-212 123 -370 130 -144 7 -289 39 -335 73 -42 32 -84 51 -112 51 -11 0 -113
29 -227 64 -113 35 -230 67 -260 70 -61 8 -93 22 -157 71 -24 19 -61 37 -82
40 -115 17 -271 58 -303 80 -72 47 -268 145 -464 231 -110 49 -264 121 -342
160 -158 81 -150 81 -159 -15 -5 -48 -3 -61 19 -92 19 -28 31 -75 57 -223 38
-221 86 -413 133 -534 19 -48 37 -115 41 -149 6 -67 23 -121 82 -253 20 -46
40 -107 42 -135 6 -56 89 -223 205 -410 41 -66 76 -138 89 -180 12 -38 36 -98
55 -133 39 -75 44 -136 14 -173 -25 -31 -44 -20 -88 47 -55 84 -83 113 -116
119 -28 5 -38 16 -66 70 -18 35 -52 82 -77 105 -24 22 -47 52 -50 68 -10 41
-39 95 -63 116 -14 13 -21 31 -21 55 0 22 -10 51 -25 74 -14 20 -46 84 -70
142 -58 138 -123 229 -177 247 -9 3 -15 37 -19 109 -6 98 -9 110 -57 214 -28
61 -58 142 -66 180 -8 39 -36 122 -62 185 -138 343 -200 571 -224 829 -7 70
-18 132 -30 158 -13 29 -76 100 -203 225 -239 238 -389 426 -571 717 -278 442
-429 804 -491 1171 -22 132 -31 403 -16 514 7 48 34 160 61 247 69 225 89 388
52 422 -28 25 -86 22 -104 -5z"/>
<path d="M44952 28853 c-123 -112 -178 -343 -114 -485 11 -24 146 -207 301
-407 254 -329 281 -368 281 -402 0 -43 22 -73 170 -234 50 -55 110 -128 132
-163 23 -34 56 -72 75 -83 19 -12 48 -40 64 -63 16 -23 58 -61 93 -86 154
-109 330 -254 559 -461 227 -206 372 -320 712 -559 278 -195 429 -302 439
-311 16 -14 -64 -41 -99 -35 -18 4 -70 34 -116 67 -163 119 -280 155 -399 123
-79 -21 -140 -22 -243 -6 -108 17 -395 15 -552 -3 -72 -8 -238 -31 -370 -50
-314 -45 -434 -56 -569 -54 -106 2 -156 -7 -171 -30 -4 -8 -152 -11 -464 -11
l-459 0 -6 -42 c-3 -24 -5 -126 -5 -228 1 -112 -3 -215 -11 -260 -16 -93 -8
-139 30 -180 29 -31 32 -32 93 -26 34 3 148 10 252 15 134 7 238 19 350 40
204 38 395 62 825 106 443 45 545 59 710 96 74 17 219 48 323 69 162 33 195
44 248 76 76 46 113 47 193 6 121 -62 226 -64 626 -11 147 20 331 22 410 6
108 -23 308 -41 452 -42 l167 0 30 29 c38 36 39 55 5 95 -22 26 -33 31 -70 31
-59 0 -134 30 -199 80 -30 23 -85 56 -122 74 -61 30 -333 206 -375 244 -10 8
-59 34 -110 56 -79 36 -99 50 -133 94 -45 58 -270 224 -335 247 -22 8 -60 28
-84 44 -23 16 -56 33 -72 37 -31 7 -177 117 -362 272 -412 345 -774 708 -1129
1132 -66 80 -144 168 -173 195 -180 172 -418 490 -645 860 -53 88 -101 164
-105 168 -3 4 -25 -9 -48 -30z"/>
<path d="M44770 15429 c-58 -4 -114 -11 -125 -15 -11 -3 -177 -10 -370 -14
-331 -7 -470 -18 -750 -55 -159 -22 -625 -93 -725 -111 -185 -34 -397 -97
-502 -150 -34 -17 -64 -24 -105 -24 -95 0 -200 -36 -279 -95 -26 -20 -48 -25
-140 -30 -91 -6 -123 -13 -194 -42 -116 -47 -225 -107 -425 -234 -159 -100
-180 -117 -316 -256 -80 -81 -166 -175 -191 -208 -117 -155 -205 -314 -252
-460 -59 -183 -56 -80 -57 -2232 0 -1390 4 -2005 12 -2085 29 -291 141 -574
330 -828 85 -115 273 -306 391 -396 244 -187 553 -336 908 -437 515 -147 1016
-210 1655 -210 649 1 1193 50 1490 134 99 28 215 70 215 78 0 3 19 7 43 8 23
1 105 18 182 37 172 43 299 103 382 180 49 45 172 129 322 219 18 11 45 21 60
22 14 1 51 5 82 10 37 5 63 4 77 -4 21 -11 22 -17 22 -222 0 -241 7 -271 77
-305 37 -18 90 -19 1501 -22 1000 -1 1476 1 1503 8 30 8 48 23 81 68 l42 57 0
1992 c0 1987 0 1992 -20 2020 -11 15 -33 36 -48 47 l-27 21 -2297 0 c-2505 0
-2340 4 -2383 -57 -21 -29 -21 -39 -24 -636 -2 -665 -4 -647 57 -678 28 -14
87 -16 527 -15 544 2 571 -1 623 -56 53 -58 52 -46 54 -523 2 -497 0 -523 -62
-641 -64 -121 -207 -231 -354 -273 -30 -8 -131 -26 -225 -40 -441 -65 -720
-59 -1015 20 -239 65 -402 189 -486 369 -68 148 -65 19 -62 2175 3 1877 4
1946 22 1980 10 19 26 44 36 55 9 11 23 41 29 66 21 76 93 172 166 220 250
163 451 217 843 226 234 6 359 -4 565 -43 307 -59 444 -139 528 -308 73 -149
105 -402 87 -696 -10 -177 -6 -227 24 -266 45 -57 -51 -54 1713 -54 l1626 0
49 21 c48 20 49 22 55 73 4 29 5 252 2 496 -4 410 -6 453 -26 542 -82 372
-291 650 -652 868 -64 38 -90 49 -110 45 -20 -5 -60 10 -159 60 -396 199 -833
328 -1480 439 -459 79 -892 121 -1505 146 -851 34 -828 33 -1015 19z"/>
<path d="M62225 15431 l-530 -8 -157 -31 c-86 -18 -228 -38 -315 -46 -361 -34
-985 -178 -1355 -315 -557 -205 -951 -451 -1232 -771 -60 -68 -112 -118 -132
-126 -27 -12 -34 -20 -34 -43 0 -15 -18 -66 -39 -112 -87 -185 -141 -425 -161
-719 -17 -236 -8 -3533 10 -3675 28 -230 110 -456 211 -586 94 -119 289 -325
389 -411 343 -294 837 -532 1445 -697 358 -97 951 -211 1096 -211 49 0 271
-16 492 -35 709 -60 926 -65 1652 -36 269 10 362 24 481 70 71 28 73 28 140
14 50 -11 109 -13 214 -10 153 6 211 16 417 74 93 26 159 38 243 43 132 9 280
41 489 107 193 60 272 81 356 94 145 23 503 186 809 369 135 81 168 105 220
165 34 38 86 92 116 120 332 299 491 605 529 1015 6 64 8 806 6 1910 -2 1634
-4 1814 -19 1895 -67 362 -204 624 -456 875 -69 69 -166 154 -217 190 -64 45
-92 71 -92 85 -1 38 -342 229 -590 330 -195 80 -513 182 -760 245 -93 23 -616
116 -871 154 -186 28 -406 51 -620 67 -193 13 -1078 18 -1735 10z m905 -1351
c224 -20 466 -83 589 -152 75 -43 154 -125 190 -200 66 -137 62 2 66 -1998 3
-998 1 -1909 -4 -2025 -8 -183 -12 -220 -35 -290 -77 -240 -264 -370 -647
-447 -100 -20 -144 -23 -349 -23 -201 0 -251 3 -350 22 -406 78 -573 188 -647
428 -17 57 -18 149 -18 2135 0 1986 1 2078 18 2135 71 229 212 319 604 385
219 37 395 46 583 30z"/>
<path d="M1704 15340 c-84 -9 -118 -29 -136 -78 -11 -30 -13 -730 -13 -3762 0
-3705 0 -3725 20 -3765 11 -22 36 -48 55 -60 l35 -20 4015 0 4015 0 46 21 c71
33 81 63 92 284 12 254 2 1333 -13 1385 -18 58 -65 100 -128 114 -38 8 -477
11 -1566 11 -1022 0 -1532 3 -1572 11 -149 26 -303 139 -367 268 -30 61 -32
72 -32 171 0 128 19 175 105 261 67 67 200 136 330 171 l85 22 1520 6 c1427 5
1522 6 1555 23 69 34 74 54 81 312 9 307 9 1483 0 1715 -8 206 -16 236 -74
267 -30 17 -124 18 -1567 23 l-1535 5 -79 23 c-227 64 -381 192 -422 352 -50
197 89 417 309 489 137 45 119 44 1707 45 1266 1 1521 3 1550 15 55 21 87 58
99 110 13 61 23 1109 13 1316 -10 190 -19 216 -90 248 l-47 22 -3960 1 c-2178
1 -3992 -2 -4031 -6z"/>
<path d="M12440 15341 c-2036 -7 -1885 -1 -1912 -66 -10 -24 -14 -770 -16
-3734 l-2 -3703 27 -60 c14 -32 37 -68 51 -79 24 -19 55 -19 1693 -19 l1668 0
25 23 c13 12 36 45 50 72 l26 50 0 2189 c-1 1965 1 2191 15 2212 8 13 21 24
28 24 7 0 37 -25 67 -55 30 -30 60 -55 68 -55 7 0 27 -13 43 -29 21 -22 29
-39 30 -68 1 -69 29 -120 90 -166 41 -31 246 -363 459 -742 148 -264 262 -453
383 -635 135 -203 287 -410 301 -410 6 0 58 -85 114 -188 56 -104 131 -228
167 -277 36 -50 65 -100 65 -112 0 -12 7 -43 15 -68 23 -66 968 -1586 1027
-1650 29 -32 72 -66 106 -82 l57 -28 1870 0 1870 0 44 25 c32 18 52 39 70 75
l26 49 -1 3696 c-1 2823 -4 3702 -13 3725 -7 17 -24 42 -39 58 l-26 27 -1679
0 c-1055 0 -1685 -4 -1696 -10 -10 -5 -24 -23 -31 -40 -7 -18 -20 -30 -30 -30
-10 0 -28 -12 -39 -26 l-21 -27 0 -2068 c0 -1606 -2 -2073 -12 -2088 -15 -25
-50 -41 -89 -41 -27 0 -32 6 -67 83 -21 45 -91 165 -156 266 -65 101 -219 346
-343 545 -124 198 -302 469 -396 601 -94 132 -180 263 -192 290 -31 69 -629
1004 -972 1522 -98 147 -229 351 -291 453 -134 219 -221 343 -318 455 -81 92
-122 116 -203 119 -31 1 -891 0 -1911 -3z"/>
<path d="M21770 15328 c-61 -11 -102 -38 -125 -83 -20 -40 -20 -60 -20 -3745
l0 -3705 22 -41 c14 -26 36 -48 60 -60 37 -19 138 -19 4043 -19 3780 0 4007 1
4037 17 59 33 58 18 58 858 0 719 -1 768 -18 813 -15 37 -28 52 -60 70 l-42
22 -1575 5 c-1494 5 -1578 6 -1630 24 -144 48 -247 130 -299 239 -97 203 -36
412 156 540 75 50 115 68 218 100 l70 22 1550 5 c1472 5 1552 6 1578 23 16 10
33 30 40 45 9 21 12 282 12 1087 0 1040 0 1061 -20 1100 -14 29 -30 43 -55 52
-26 9 -397 12 -1522 12 -998 1 -1512 5 -1565 12 -155 21 -281 80 -385 181 -81
78 -112 147 -116 260 -10 232 117 388 377 461 l76 22 1555 5 c1760 6 1602 -3
1637 87 17 45 18 93 18 768 0 679 -1 722 -18 757 -37 73 338 67 -4059 70
-2176 2 -3975 0 -3998 -4z"/>
<path d="M50503 15324 c-62 -16 -100 -56 -113 -118 -8 -36 -10 -1096 -8 -3721
3 -3552 4 -3671 22 -3707 10 -21 35 -48 55 -60 l36 -23 3670 0 c3578 0 3671 0
3701 19 17 10 40 33 50 50 18 29 19 63 20 656 2 582 1 628 -16 667 -12 26 -30
48 -52 60 -31 17 -118 18 -1898 23 -1739 5 -1867 6 -1896 22 -63 35 -59 -191
-59 3038 0 2367 -3 2962 -13 2991 -15 42 -55 83 -97 100 -42 16 -3338 19
-3402 3z"/>
<path d="M68324 15326 c-20 -9 -35 -25 -43 -46 -8 -24 -11 -1018 -11 -3752 l0
-3720 22 -45 c13 -25 34 -54 47 -64 24 -19 80 -19 2925 -16 3157 3 2959 0
3246 57 77 15 156 22 293 25 118 3 209 10 245 19 31 8 101 19 155 25 66 8 128
22 191 46 80 30 106 35 179 35 90 0 128 16 142 60 6 18 16 20 93 20 92 0 114
8 157 58 14 17 44 28 107 42 305 66 648 249 905 482 24 21 52 38 63 38 11 0
57 36 109 88 68 66 92 97 102 130 9 30 22 48 45 63 57 35 76 71 86 167 6 61
14 90 25 97 38 24 75 59 88 84 24 47 63 233 69 330 3 51 18 150 33 220 15 69
27 144 27 166 0 22 -12 121 -28 220 -26 175 -36 210 -109 400 -122 319 -300
529 -575 679 -42 23 -133 76 -201 116 -105 63 -145 80 -270 117 -325 97 -578
155 -731 168 -115 9 -114 9 -129 60 -12 40 -12 49 0 60 8 7 119 47 247 89 128
42 295 101 370 132 610 247 914 586 1027 1148 79 390 38 761 -117 1070 -168
335 -484 612 -871 765 -351 139 -820 254 -1267 310 -503 64 -855 70 -4100 70
-2095 0 -2520 -2 -2546 -13z m4591 -1276 c452 -38 749 -180 859 -410 61 -127
71 -192 71 -475 0 -231 -2 -255 -22 -321 -31 -97 -82 -169 -184 -262 -68 -60
-113 -90 -211 -140 -237 -119 -350 -134 -969 -134 -443 -1 -447 0 -486 22 -22
12 -48 36 -59 53 -18 31 -19 64 -22 780 -2 525 1 760 9 789 13 49 58 95 97
100 80 9 804 8 917 -2z m125 -2961 c124 -14 261 -50 357 -92 43 -19 109 -47
147 -62 112 -46 179 -98 261 -201 169 -211 218 -334 240 -594 7 -87 -9 -335
-31 -459 -69 -402 -319 -619 -774 -670 -258 -29 -1149 -43 -1235 -20 -53 14
-91 52 -103 102 -16 64 -18 1863 -3 1902 16 39 49 75 83 89 38 16 927 21 1058
5z"/>
<path d="M80471 15327 c-47 -23 -107 -131 -152 -270 -23 -73 -83 -235 -132
-362 -49 -126 -186 -489 -304 -805 -118 -316 -224 -593 -236 -615 -13 -24 -35
-46 -55 -54 -25 -12 -32 -21 -33 -45 -1 -17 -3 -67 -5 -111 -3 -93 -27 -178
-91 -320 -25 -55 -94 -228 -153 -385 -142 -376 -215 -564 -507 -1310 -436
-1112 -498 -1276 -890 -2340 -134 -366 -259 -690 -276 -720 -52 -89 -76 -152
-77 -197 0 -34 5 -46 30 -67 17 -14 49 -27 73 -31 23 -3 808 -5 1744 -3 l1702
3 35 34 c30 29 35 40 33 75 -2 57 276 1075 311 1140 15 27 44 63 65 80 l39 31
1206 3 c1190 2 1206 2 1247 -18 54 -26 79 -71 105 -191 45 -205 242 -986 257
-1021 19 -45 47 -72 95 -93 33 -13 231 -15 1793 -15 1894 0 1807 -2 1835 51
25 47 4 118 -153 509 -429 1066 -1170 2974 -1180 3036 -13 83 -60 224 -132
394 -40 97 -84 206 -97 243 -14 42 -28 67 -38 67 -10 0 -54 96 -139 308 -117
287 -125 311 -123 367 3 70 -21 147 -118 380 -75 178 -104 263 -130 367 -10
43 -27 90 -38 105 -37 53 -80 149 -132 298 -29 83 -68 182 -88 220 -19 39 -41
98 -48 131 -12 62 -46 137 -90 204 -13 19 -30 71 -39 114 -22 106 -43 161
-136 357 -58 121 -84 188 -95 245 -22 117 -38 143 -120 186 l-69 36 -2335 1
c-1835 1 -2340 -2 -2359 -12z m2427 -1351 c13 -17 42 -130 92 -358 40 -183 90
-389 112 -458 44 -141 63 -219 73 -302 5 -46 10 -58 24 -58 15 0 38 -96 164
-687 80 -379 153 -735 162 -793 10 -58 36 -172 60 -255 33 -114 44 -173 47
-246 5 -87 9 -105 43 -173 31 -63 37 -83 32 -118 -11 -82 -103 -175 -162 -164
-112 21 -276 28 -600 25 -198 -2 -489 -3 -647 -1 l-288 2 -27 42 c-42 62 -44
166 -7 268 16 44 29 110 34 160 7 85 31 152 64 179 12 10 16 34 16 100 0 62 6
97 19 127 10 23 22 69 26 104 4 35 25 120 47 189 21 69 41 151 45 183 4 38 10
58 19 58 17 0 54 119 100 325 56 246 102 420 130 488 16 39 29 98 35 157 13
126 39 240 109 491 33 115 71 267 85 336 21 105 42 187 91 355 15 51 71 63
102 24z"/>
<path d="M90365 15310 c-1264 -4 -1666 -8 -1687 -17 -43 -19 -59 -53 -58 -125
0 -35 3 -1710 5 -3722 l4 -3659 22 -23 c49 -52 -162 -49 3739 -49 l3645 0 50
25 c94 47 89 13 91 655 1 308 -2 589 -6 624 -9 66 -27 95 -70 115 -18 8 -529
12 -1890 16 -1816 5 -1866 6 -1904 24 -28 14 -45 32 -60 65 l-21 46 -2 2945
c-1 1620 -5 2959 -8 2976 -6 34 -56 88 -98 103 -16 6 -43 10 -60 9 -18 -2
-779 -5 -1692 -8z"/>
<path d="M30627 15292 c-33 -13 -52 -34 -67 -70 -16 -38 -13 -7451 3 -7470 6
-8 26 -20 42 -26 22 -8 516 -10 1747 -6 l1718 5 27 28 28 27 5 1558 c5 1532 5
1558 25 1597 33 66 43 68 495 69 588 1 861 -24 1091 -100 250 -83 399 -215
438 -389 23 -100 31 -395 31 -1112 0 -788 2 -836 55 -1080 55 -253 109 -398
180 -480 42 -49 135 -98 214 -113 35 -6 639 -10 1700 -10 1474 0 1649 2 1669
16 12 8 22 25 22 37 0 12 -34 90 -75 172 -105 211 -143 354 -165 627 -7 86
-10 461 -9 1058 l2 925 -22 90 c-44 174 -125 311 -258 435 -67 63 -209 162
-293 205 -25 13 -54 33 -65 45 -45 51 -127 91 -278 136 -178 53 -550 149 -759
195 -96 21 -148 37 -148 45 0 23 56 54 98 54 48 0 343 73 555 137 210 63 368
123 545 209 132 63 163 83 223 140 38 37 69 75 69 85 0 10 32 54 70 99 151
175 220 308 268 515 35 148 44 290 39 576 -4 244 -6 272 -30 366 -102 396
-342 691 -705 864 -70 33 -152 74 -182 90 -123 67 -181 91 -236 96 -34 4 -89
20 -132 41 -103 47 -247 82 -341 82 -54 0 -89 6 -120 20 -115 52 -689 139
-1156 175 -369 28 -606 35 -1495 46 -1240 15 -4782 8 -4823 -9z m4334 -1277
l487 -5 168 -35 c295 -61 401 -104 499 -203 95 -94 130 -197 156 -462 18 -185
-2 -378 -56 -540 -31 -93 -57 -136 -95 -158 -23 -13 -28 -22 -23 -42 16 -81
-284 -202 -567 -229 -249 -25 -480 -34 -855 -35 l-400 -1 -45 25 c-32 18 -52
38 -68 70 l-22 45 2 725 c3 683 4 727 22 762 34 69 115 99 246 92 36 -2 284
-6 551 -9z"/>
<path d="M67490 5104 c-406 -49 -764 -169 -1025 -341 -140 -93 -337 -291 -434
-437 -225 -338 -322 -679 -308 -1083 7 -190 27 -305 81 -468 118 -351 318
-596 721 -884 188 -134 331 -181 712 -231 318 -42 726 -26 1026 41 725 160
1218 690 1322 1420 17 121 19 367 5 489 -23 185 -85 391 -171 563 -89 176
-166 272 -383 478 l-173 165 -129 58 c-233 106 -427 167 -659 207 -106 19
-493 34 -585 23z m385 -714 c160 -40 310 -135 407 -255 95 -117 184 -334 224
-544 30 -153 14 -431 -35 -623 -87 -340 -284 -547 -608 -640 -64 -19 -103 -23
-213 -23 -162 0 -224 15 -360 82 -77 39 -111 63 -181 133 -98 97 -149 177
-209 328 -152 379 -139 737 40 1092 134 267 308 411 560 466 88 18 270 11 375
-16z"/>
<path d="M35160 5075 c-112 -37 -211 -54 -360 -64 -129 -8 -141 -11 -265 -59
-71 -27 -141 -53 -155 -57 -35 -10 -245 -182 -318 -259 -115 -123 -174 -228
-212 -375 -54 -214 -29 -423 71 -593 84 -143 190 -229 479 -393 85 -48 183
-107 217 -131 44 -32 71 -44 97 -44 175 0 431 -78 598 -183 168 -105 248 -195
248 -278 0 -49 -39 -123 -67 -127 -13 -2 -43 -27 -68 -57 -47 -55 -85 -75
-140 -75 -20 0 -39 -8 -51 -21 -27 -30 -92 -59 -135 -59 -20 0 -56 -9 -80 -20
-56 -25 -122 -25 -178 0 -29 14 -65 20 -110 20 -48 0 -78 6 -106 20 -31 16
-62 21 -136 23 -71 2 -103 7 -122 20 -14 9 -43 17 -64 17 -65 1 -117 18 -143
47 -16 18 -51 36 -96 51 -92 29 -124 28 -154 -3 -22 -23 -24 -34 -21 -99 3
-100 -20 -192 -80 -314 -44 -89 -51 -109 -46 -145 7 -53 58 -102 143 -136 32
-14 70 -31 83 -40 14 -9 41 -14 70 -12 26 1 97 -9 158 -23 88 -20 138 -26 235
-26 104 0 129 -3 161 -20 34 -18 56 -20 272 -20 216 0 238 2 272 20 30 16 57
20 130 20 291 0 766 197 986 409 102 97 152 167 206 288 61 137 74 193 73 318
-1 235 -71 402 -237 571 -187 190 -394 296 -881 453 -234 75 -448 158 -515
202 -98 62 -134 146 -109 250 23 94 104 161 262 215 158 53 293 55 608 9 198
-29 360 -41 413 -31 20 4 51 19 68 34 39 32 102 162 154 316 53 155 42 217
-42 252 -30 13 -415 78 -648 110 -60 8 -173 17 -250 19 -129 4 -146 3 -215
-20z"/>
<path d="M60080 5083 c-19 -2 -125 -18 -235 -34 -109 -16 -256 -32 -325 -35
l-125 -6 -245 -90 c-377 -140 -493 -201 -692 -367 -312 -261 -523 -671 -569
-1106 -34 -324 63 -707 274 -1080 78 -140 159 -216 352 -332 192 -116 280
-160 435 -216 347 -126 673 -181 1075 -181 253 0 369 9 630 49 88 14 223 31
300 40 170 17 237 34 327 82 119 62 108 -12 108 732 0 373 5 695 11 761 20
216 13 261 -42 291 -15 8 -162 12 -493 13 -259 2 -528 6 -597 11 -147 9 -205
-4 -256 -58 -72 -76 -80 -134 -57 -389 l18 -197 146 6 145 5 83 -42 c130 -65
177 -149 176 -310 -1 -114 -29 -186 -98 -255 -100 -99 -289 -141 -447 -97 -41
11 -105 25 -144 31 -96 14 -234 55 -322 96 -353 163 -605 526 -620 895 -6 127
7 200 52 299 14 29 25 67 25 83 0 45 28 146 58 208 33 69 158 196 227 231 28
13 93 50 145 81 111 65 187 99 302 132 146 42 243 51 533 51 301 -1 419 -13
610 -65 131 -36 197 -38 243 -10 42 26 58 65 78 192 10 63 31 139 54 197 63
158 61 214 -7 254 -65 37 -134 49 -348 57 -188 8 -223 12 -330 40 -104 27
-140 32 -270 35 -82 2 -166 1 -185 -2z"/>
<path d="M70294 5036 c-17 -8 -40 -25 -51 -39 -19 -25 -20 -44 -26 -754 -7
-933 4 -1192 68 -1539 82 -444 297 -722 716 -923 724 -350 1607 -224 2288 325
l84 68 68 141 c83 171 123 272 156 390 25 88 25 99 34 605 5 283 8 769 7 1080
-3 521 -4 568 -21 593 -41 63 -31 62 -482 63 -473 2 -475 1 -516 -78 l-23 -43
-1 -995 c-1 -882 -3 -1004 -17 -1072 -55 -258 -215 -451 -438 -529 -51 -18
-88 -23 -170 -23 -121 -1 -155 8 -328 91 -182 87 -262 184 -313 378 -18 70
-22 127 -30 450 -6 204 -7 661 -4 1016 7 683 6 709 -38 758 -46 50 -56 51
-509 51 -331 -1 -430 -4 -454 -14z"/>
<path d="M75355 5040 c-99 -4 -322 -13 -495 -20 -173 -6 -333 -16 -355 -22
-55 -14 -101 -65 -113 -125 -5 -29 -8 -667 -7 -1563 1 -1593 0 -1533 44 -1584
40 -46 49 -47 479 -50 449 -4 451 -4 487 57 19 30 20 58 25 522 5 443 7 493
23 522 9 18 27 38 40 45 15 8 107 15 277 20 297 8 429 20 596 54 224 44 472
141 625 245 82 55 213 186 269 268 57 85 114 209 140 306 28 103 38 308 20
409 -37 205 -132 382 -290 536 -268 262 -652 372 -1340 384 -135 2 -326 1
-425 -4z m712 -707 c162 -53 265 -166 293 -321 28 -158 -47 -298 -211 -395
-131 -77 -292 -111 -489 -105 -138 4 -173 16 -214 71 -20 28 -21 39 -20 330 0
320 6 366 46 404 40 37 83 42 313 39 189 -2 229 -6 282 -23z"/>
<path d="M21260 5003 c-41 -11 -135 -16 -362 -21 -290 -7 -308 -8 -335 -28
-62 -46 -58 70 -58 -1634 l0 -1555 36 -18 c69 -33 133 -37 464 -29 359 9 372
12 403 80 16 34 17 163 20 1567 2 1030 0 1542 -7 1566 -12 41 -46 75 -81 83
-14 2 -50 -2 -80 -11z"/>
<path d="M22403 5006 c-17 -8 -37 -25 -45 -38 -11 -19 -13 -308 -13 -1608 0
-1717 -3 -1636 54 -1660 18 -7 141 -11 361 -13 292 -2 345 0 411 16 l77 18 7
187 c4 103 5 577 1 1054 l-7 868 25 25 c48 48 97 29 122 -47 9 -29 43 -98 74
-153 32 -55 96 -172 142 -260 94 -177 140 -255 310 -520 123 -193 215 -350
268 -455 18 -36 58 -93 90 -127 57 -61 110 -143 209 -324 62 -114 145 -225
189 -255 28 -19 52 -23 199 -29 93 -4 301 -5 464 -2 318 5 344 10 370 59 9 17
12 409 13 1622 1 1791 8 1631 -74 1647 -67 12 -707 11 -754 -2 -21 -6 -50 -22
-63 -35 l-25 -25 5 -552 c2 -318 9 -582 15 -622 15 -96 40 -415 48 -612 8
-177 2 -210 -42 -234 -51 -27 -71 -2 -163 201 -51 113 -133 267 -209 395 -257
430 -835 1381 -859 1413 -13 18 -43 42 -66 55 -42 22 -44 22 -572 24 -436 2
-536 0 -562 -11z"/>
<path d="M26585 5008 c-115 -4 -220 -11 -232 -13 -31 -7 -29 -35 5 -61 26 -21
27 -27 31 -119 3 -94 4 -99 38 -144 51 -66 75 -126 80 -206 5 -61 11 -78 49
-136 71 -108 106 -208 119 -339 8 -75 41 -165 135 -370 86 -184 148 -343 298
-755 67 -181 146 -390 176 -464 31 -73 60 -158 65 -187 11 -58 24 -88 78 -172
29 -45 38 -70 43 -126 12 -109 42 -165 100 -188 15 -6 232 -9 560 -8 588 1
564 -2 598 63 10 17 33 49 53 71 47 53 59 77 59 118 0 20 25 85 65 168 57 119
65 142 65 195 0 85 11 116 85 239 35 60 68 119 71 130 4 12 69 181 146 376 77
195 169 434 203 530 34 96 103 272 152 390 104 249 124 307 157 451 19 84 31
117 61 158 44 61 71 129 81 202 4 30 15 78 26 108 10 30 18 56 18 57 0 2 -13
10 -30 19 -25 13 -95 15 -475 15 -407 0 -446 -1 -452 -17 -4 -9 -14 -24 -24
-34 -10 -10 -20 -39 -23 -66 -4 -26 -27 -109 -52 -183 -272 -793 -381 -1141
-489 -1550 -93 -355 -154 -521 -212 -582 -32 -34 -53 -35 -80 -5 -33 35 -39
53 -124 329 -97 320 -147 502 -188 682 -41 183 -136 489 -171 551 -48 84 -96
216 -164 444 -36 120 -82 258 -103 307 l-38 89 -55 12 c-144 32 -316 37 -705
21z"/>
<path d="M30631 5003 c-42 -14 -58 -33 -71 -84 -7 -24 -9 -586 -8 -1591 3
-1693 -1 -1587 61 -1623 30 -18 81 -19 1249 -17 l1217 1 50 21 c79 34 85 45
71 132 -14 98 -17 233 -6 345 11 113 0 145 -55 174 -37 18 -64 19 -721 19
-439 0 -696 4 -720 10 -53 15 -94 53 -114 106 -15 39 -16 69 -10 247 8 231 17
277 57 311 52 44 97 47 704 45 631 -2 627 -2 660 60 13 26 15 63 13 219 -3
179 -2 189 21 240 23 50 23 53 6 72 -10 11 -38 30 -64 42 l-46 23 -599 1
c-330 1 -616 5 -637 8 -48 8 -104 55 -121 104 -9 25 -12 81 -11 175 4 198 24
256 100 292 35 17 76 18 553 16 283 -1 561 3 616 8 201 18 223 50 264 368 24
189 20 228 -33 267 l-28 21 -1181 0 c-909 0 -1189 -2 -1217 -12z"/>
<path d="M37105 5005 c-22 -8 -41 -15 -42 -15 -1 0 -13 -19 -27 -42 -39 -68
-47 -148 -34 -345 11 -162 13 -174 35 -195 25 -23 26 -23 431 -28 l407 -5 55
-27 c57 -28 93 -70 109 -125 5 -17 9 -563 9 -1215 -1 -1322 -6 -1234 68 -1258
36 -12 113 -11 399 6 95 5 120 3 181 -15 93 -27 166 -28 211 0 68 42 64 -47
66 1287 l2 1207 22 47 c16 35 32 53 65 70 43 23 47 23 478 28 447 5 469 7 484
46 9 24 7 70 -5 120 -9 35 -8 70 6 172 21 150 12 218 -32 264 -37 39 -75 43
-179 18 -88 -21 -102 -21 -1279 -22 -1043 -1 -1197 1 -1250 15 -98 25 -137 28
-180 12z"/>
<path d="M41461 5012 c-642 -2 -603 1 -636 -62 -17 -33 -51 -515 -65 -910 -11
-344 -24 -528 -80 -1155 -74 -831 -87 -1071 -61 -1133 27 -63 35 -64 431 -64
391 0 404 1 434 60 23 44 25 74 41 492 15 396 33 780 60 1285 14 271 39 455
70 516 17 31 56 44 86 28 33 -17 46 -65 74 -260 21 -151 31 -194 55 -239 37
-73 60 -152 60 -213 0 -34 6 -57 20 -74 16 -21 20 -41 20 -103 0 -64 4 -85 25
-123 49 -86 85 -205 99 -321 11 -95 18 -122 53 -191 44 -87 68 -157 77 -223 4
-24 28 -96 55 -160 49 -115 78 -230 67 -259 -11 -27 14 -91 43 -116 l29 -24
73 20 c102 28 341 29 487 3 56 -10 109 -15 117 -12 40 15 95 131 171 359 42
128 121 360 176 517 55 156 116 339 135 405 19 66 57 190 84 275 64 197 114
377 139 505 17 84 28 111 69 175 27 41 59 95 72 118 31 57 69 78 106 60 37
-18 53 -53 53 -119 0 -31 7 -73 15 -94 28 -66 30 -154 6 -233 -26 -88 -29
-208 -4 -255 15 -29 17 -109 20 -836 3 -769 4 -806 23 -848 15 -34 29 -48 62
-63 40 -17 69 -19 418 -17 288 2 380 5 398 15 37 21 43 52 26 139 -37 195 -46
328 -53 808 -6 416 -9 483 -23 505 -13 21 -17 72 -22 305 -3 154 -12 354 -21
445 -36 391 -55 636 -61 800 -5 134 -10 181 -22 200 -9 14 -17 33 -17 42 -1
10 -4 20 -6 22 -2 2 -267 5 -589 7 -675 3 -628 10 -697 -93 -73 -110 -102
-186 -162 -426 -17 -64 -82 -279 -146 -477 -113 -352 -181 -605 -224 -835 -37
-193 -91 -270 -190 -270 -50 0 -84 17 -103 53 -6 12 -14 71 -18 132 -7 96 -22
163 -120 525 -226 841 -354 1266 -400 1330 -25 36 -62 56 -110 61 -19 2 -298
3 -619 1z"/>
<path d="M54720 5010 c-1320 -5 -1398 -7 -1450 -24 -30 -10 -56 -20 -58 -21
-2 -2 -11 -32 -19 -66 -12 -48 -17 -114 -17 -259 -1 -168 1 -199 16 -227 36
-65 24 -63 446 -63 259 0 398 -4 430 -12 33 -8 61 -26 99 -63 l53 -51 0 -1231
0 -1232 26 -20 c26 -21 37 -21 463 -21 417 0 437 1 469 20 17 11 32 25 32 32
0 7 2 558 3 1223 l2 1210 22 48 c18 39 31 52 70 70 47 21 61 22 480 27 398 5
434 6 450 23 16 16 18 45 21 311 l3 294 -44 21 c-24 12 -57 20 -73 19 -16 -2
-657 -5 -1424 -8z"/>
<path d="M45899 4995 c-57 -31 -54 62 -57 -1595 -2 -839 0 -1549 3 -1579 5
-37 14 -61 30 -77 l24 -24 1236 0 c1038 0 1241 2 1269 14 54 23 60 55 57 331
-1 225 -3 241 -21 260 -20 20 -35 20 -785 23 l-765 2 -25 38 c-47 68 -66 154
-66 287 0 153 15 295 35 333 18 36 57 65 106 80 25 8 210 11 625 10 569 -2
591 -2 623 17 34 20 38 31 63 150 18 88 16 256 -5 351 -10 45 -21 87 -25 93
-10 15 -186 39 -383 51 -178 11 -391 2 -582 -25 -60 -8 -148 -15 -196 -15 -82
0 -88 2 -129 33 -88 67 -141 180 -141 302 0 42 7 95 16 122 23 67 78 147 127
183 l41 30 651 0 c701 0 677 -2 705 51 7 12 11 116 11 277 0 251 -1 257 -22
275 -20 16 -92 17 -1208 17 -994 -1 -1190 -3 -1212 -15z"/>
<path d="M49263 4986 c-34 -29 -33 3 -14 -496 10 -270 12 -568 8 -1143 -3
-428 -3 -960 0 -1183 l6 -404 36 -9 c158 -41 451 -48 631 -17 116 20 135 27
150 57 8 13 11 233 11 700 0 667 -1 681 -21 713 -19 31 -20 48 -18 252 2 209
1 225 -26 340 -26 108 -27 124 -15 150 20 42 73 66 132 61 77 -7 101 -38 243
-319 185 -367 446 -812 673 -1151 37 -56 71 -115 75 -132 11 -45 50 -100 90
-125 21 -12 36 -30 36 -40 0 -43 47 -140 118 -243 41 -61 87 -138 102 -171 16
-34 39 -71 53 -84 l24 -23 457 3 457 3 40 42 39 42 0 1559 c0 1544 0 1560 -20
1585 -11 14 -20 32 -20 41 0 14 -39 16 -379 16 -380 0 -380 0 -406 -22 -31
-28 -32 -32 -17 -273 7 -105 11 -381 10 -615 -1 -378 1 -449 21 -639 29 -275
27 -524 -3 -547 -30 -22 -79 -18 -103 9 -34 37 -203 337 -235 416 -50 126
-173 360 -274 522 -161 257 -324 489 -344 489 -11 0 -20 10 -24 25 -4 14 -30
53 -59 88 -74 86 -85 105 -98 167 -15 72 -30 100 -101 190 -105 134 -131 162
-164 176 -27 11 -133 14 -538 14 l-505 0 -28 -24z"/>
<path d="M63054 4996 c-3 -9 -13 -16 -22 -16 -8 0 -24 -7 -34 -17 -11 -9 -18
-11 -18 -5 0 9 -90 12 -343 12 -320 0 -345 -1 -360 -18 -16 -17 -17 -144 -17
-1620 l0 -1602 455 0 455 0 30 32 c16 18 30 39 30 47 0 8 -12 39 -27 70 l-28
56 -2 345 c-3 381 6 529 37 611 21 59 68 111 113 128 73 28 264 -2 377 -59
152 -76 266 -204 335 -372 14 -34 46 -137 70 -228 49 -185 104 -350 141 -422
13 -26 24 -59 24 -73 0 -42 28 -84 78 -116 l46 -29 454 0 455 0 -7 79 c-9 110
-42 232 -124 461 -38 107 -88 255 -111 328 -90 287 -181 422 -373 556 -56 40
-88 80 -88 111 0 34 43 76 128 126 211 124 333 242 407 392 63 128 80 199 79
332 -1 217 -79 391 -250 556 -153 147 -323 223 -634 284 -251 48 -368 57 -832
62 -397 5 -438 4 -444 -11z m642 -526 c208 -22 443 -140 519 -260 59 -94 68
-217 25 -333 -54 -145 -248 -272 -475 -312 -105 -18 -405 -21 -456 -4 -79 27
-120 96 -134 229 -10 92 11 458 30 518 31 101 94 146 231 161 99 12 156 12
260 1z"/>
</g>
</svg>
