<?xml version="1.0" standalone="no"?>
<!DOCTYPE svg PUBLIC "-//W3C//DTD SVG 20010904//EN"
 "http://www.w3.org/TR/2001/REC-SVG-20010904/DTD/svg10.dtd">
<svg version="1.0" xmlns="http://www.w3.org/2000/svg"
 width="1623.000000pt" height="747.000000pt" viewBox="0 0 1623.000000 747.000000"
 preserveAspectRatio="xMidYMid meet">

<g transform="translate(0.000000,747.000000) scale(0.100000,-0.100000)"
fill="#000000" stroke="none">
<path d="M7865 6492 c-76 -8 -284 -55 -367 -84 -120 -41 -324 -143 -439 -220
-159 -106 -334 -290 -433 -455 -165 -277 -218 -635 -136 -930 75 -270 249
-533 465 -704 70 -56 172 -129 178 -129 2 0 46 -24 98 -54 52 -29 111 -60 133
-67 29 -11 43 -24 61 -59 42 -83 145 -162 238 -184 l27 -6 0 309 c0 170 -3
312 -7 314 -21 13 -139 -50 -197 -104 l-62 -57 -59 32 c-130 69 -290 190 -373
281 -122 133 -224 319 -262 475 -71 296 -8 615 171 870 118 168 291 306 524
420 212 103 366 139 630 147 154 5 198 2 301 -15 558 -96 984 -444 1111 -909
24 -89 27 -114 27 -268 -1 -156 -3 -177 -28 -260 -95 -317 -300 -557 -629
-739 l-68 -38 -59 57 c-53 50 -122 90 -187 110 -21 6 -22 3 -25 -57 l-3 -63
-158 -5 c-125 -4 -160 -8 -167 -20 -5 -8 -10 -17 -10 -20 0 -3 5 -12 10 -20 7
-12 42 -16 167 -20 l158 -5 0 -110 0 -110 -155 -3 c-131 -2 -157 -5 -167 -19
-17 -22 -16 -28 3 -47 13 -13 43 -16 169 -16 l154 0 3 -52 c3 -62 8 -62 98
-22 67 30 135 94 160 152 14 31 28 46 50 54 59 20 212 98 283 145 559 361 792
997 570 1558 -42 107 -127 256 -194 340 -58 74 -194 206 -274 267 -231 175
-537 293 -865 334 -111 13 -360 17 -465 6z"/>
<path d="M7980 6134 c-30 -14 -86 -33 -125 -41 -208 -44 -432 -158 -584 -299
-141 -130 -286 -342 -325 -473 -21 -70 -20 -106 1 -142 22 -37 33 -37 33 -1 0
49 37 177 70 243 90 179 257 342 464 453 73 39 210 97 336 140 25 9 59 28 75
42 17 14 40 30 53 35 13 5 21 13 18 17 -3 5 6 15 19 22 14 7 25 17 25 22 0 11
3 12 -60 -18z"/>
<path d="M8055 6110 c-30 -14 -94 -73 -70 -65 78 25 339 34 455 15 130 -21
136 -21 120 -12 -30 18 -197 52 -305 62 -131 12 -173 12 -200 0z"/>
<path d="M8163 6000 c-40 -4 -123 -20 -186 -34 l-113 -27 -33 -50 c-35 -54
-92 -174 -96 -204 -1 -5 -5 -17 -8 -25 -4 -8 -13 -55 -22 -105 -16 -97 -14
-330 3 -362 8 -14 13 -10 30 23 11 21 47 71 79 111 230 286 625 459 1000 440
61 -4 126 -12 143 -19 29 -12 19 -13 -101 -14 -74 0 -161 -6 -194 -13 -183
-40 -375 -132 -489 -233 -56 -50 -156 -153 -156 -162 0 -5 7 -3 15 4 25 21
209 -14 313 -60 67 -29 221 -121 222 -131 0 -7 -47 -28 -135 -59 -161 -59
-460 -120 -584 -120 -28 0 -51 -4 -51 -10 0 -14 48 -13 192 6 246 30 436 79
684 176 167 64 343 198 406 306 28 49 33 66 32 123 0 49 -6 75 -22 103 -12 20
-22 41 -22 47 0 19 -137 139 -158 139 -6 0 -12 5 -14 10 -6 18 -188 90 -292
116 -113 27 -318 39 -443 24z"/>
<path d="M7635 5846 c-139 -66 -262 -151 -350 -240 -136 -137 -210 -267 -242
-423 -13 -62 -13 -76 -1 -90 26 -32 203 -99 312 -118 33 -5 38 -4 28 7 -12 16
-3 33 60 109 20 24 38 55 40 69 2 18 13 -5 36 -76 17 -55 32 -111 32 -122 0
-19 6 -22 36 -22 41 0 41 -7 4 120 -44 153 -46 372 -4 517 20 71 75 188 121
260 18 29 30 53 26 53 -4 0 -48 -20 -98 -44z"/>
<path d="M9154 5533 c0 -149 -145 -296 -421 -429 -51 -24 -93 -49 -93 -56 0
-6 6 -19 14 -27 8 -9 30 -51 50 -94 l35 -77 -47 -36 c-26 -20 -83 -59 -127
-87 -60 -40 -81 -59 -87 -81 -8 -34 -3 -45 14 -28 7 7 17 12 24 12 6 0 63 29
126 65 64 36 120 65 125 65 31 0 19 -140 -18 -227 -11 -26 -18 -52 -15 -59 6
-16 -31 -31 -129 -50 -84 -17 -102 -27 -67 -38 19 -6 202 27 237 43 11 5 50
23 87 39 168 76 310 216 386 380 59 130 72 328 30 487 -12 46 -108 255 -117
255 -4 0 -6 -26 -7 -57z"/>
<path d="M6850 5358 c-6 -18 -14 -62 -17 -98 -6 -73 12 -123 61 -169 14 -14
32 -48 41 -80 21 -71 124 -284 183 -376 55 -85 156 -192 239 -251 56 -40 62
-49 68 -87 10 -62 17 -72 44 -56 19 12 21 23 21 99 0 104 26 224 81 379 23 64
44 128 46 144 l5 27 -58 -3 -59 -3 -18 -50 c-29 -76 -67 -261 -67 -322 0 -45
-3 -53 -16 -48 -9 3 -19 6 -24 6 -13 0 -59 89 -77 149 -12 44 -14 79 -9 170 4
71 11 118 18 122 7 5 1 10 -18 14 -64 15 -122 34 -183 59 -35 15 -65 25 -68
22 -12 -12 30 -145 62 -196 34 -55 38 -73 10 -50 -36 30 -125 227 -125 278 0
8 -15 31 -34 52 -18 21 -47 59 -62 86 -26 44 -29 58 -28 132 0 45 -1 82 -2 82
-1 0 -7 -15 -14 -32z"/>
<path d="M7338 4903 c7 -3 16 -2 19 1 4 3 -2 6 -13 5 -11 0 -14 -3 -6 -6z"/>
<path d="M7707 4764 c-26 -26 39 -119 150 -216 71 -61 194 -138 223 -138 19 0
11 8 -38 37 -96 57 -269 225 -317 307 -6 10 -13 14 -18 10z"/>
<path d="M7699 4443 c-54 -4 -57 -5 -61 -34 -3 -16 -1 -32 4 -35 9 -5 179 14
208 23 11 4 8 8 -10 16 -14 6 -29 17 -33 24 -4 7 -18 12 -30 11 -12 -1 -47 -3
-78 -5z"/>
<path d="M8870 4404 c-25 -8 -112 -19 -194 -24 -153 -9 -187 -18 -145 -40 16
-9 54 -11 128 -7 78 4 101 3 87 -5 -10 -6 -41 -13 -67 -17 l-49 -6 35 -24 35
-24 80 47 c103 60 178 116 153 115 -10 0 -38 -7 -63 -15z"/>
<path d="M7604 3420 c-159 -13 -267 -56 -321 -127 l-28 -36 0 -231 0 -231 26
-40 c37 -57 105 -91 212 -106 113 -17 241 -2 315 35 28 14 53 26 56 26 3 0 6
-12 8 -27 l3 -28 150 0 150 0 3 208 2 207 -235 0 -235 0 0 -70 0 -70 60 0 60
0 0 -58 c0 -79 -16 -93 -104 -94 -56 -1 -70 2 -91 22 l-25 23 0 203 c0 111 3
210 6 219 16 40 130 60 189 33 26 -12 33 -27 37 -88 l3 -35 165 0 165 0 3 40
c8 94 -29 149 -123 184 -97 36 -290 54 -451 41z"/>
<path d="M9345 3418 c-157 -20 -274 -86 -294 -165 -14 -54 -14 -403 0 -440 41
-110 191 -166 449 -167 257 -1 403 46 458 149 13 25 16 65 16 240 -1 235 -4
249 -70 303 -89 73 -340 109 -559 80z m249 -147 c14 -12 16 -45 16 -237 0
-219 0 -223 -22 -238 -32 -23 -129 -21 -157 2 -21 17 -22 23 -19 242 l3 224
25 14 c31 16 132 11 154 -7z"/>
<path d="M5381 3406 c-8 -9 -11 -117 -9 -382 l3 -369 413 -3 413 -2 -3 87 -3
88 -169 3 c-104 1 -175 7 -183 13 -18 16 -16 43 5 62 15 14 47 17 183 19 l164
3 3 113 3 112 -158 0 c-168 0 -206 8 -211 46 -6 41 21 49 197 54 l166 5 0 80
0 80 -401 3 c-331 2 -403 0 -413 -12z"/>
<path d="M8255 3407 c-3 -6 -4 -179 -3 -382 l3 -370 375 0 375 0 0 70 0 70
-192 3 -193 2 0 298 c0 218 -3 301 -12 310 -17 17 -347 17 -353 -1z"/>
<path d="M3372 3033 l3 -378 405 0 405 0 0 80 0 80 -164 3 c-177 3 -201 10
-201 57 0 41 16 45 185 45 88 0 166 4 173 8 9 6 12 36 10 113 l-3 104 -173 5
c-139 4 -175 8 -182 20 -14 21 -12 57 3 67 6 4 89 10 182 13 l170 5 0 75 0 75
-408 3 -407 2 2 -377z"/>
<path d="M4270 3030 l0 -380 170 0 170 0 2 238 3 237 68 -105 c37 -58 104
-162 148 -232 l81 -128 194 0 194 0 0 375 0 375 -176 0 -175 0 3 -215 c2 -118
0 -215 -3 -215 -4 0 -69 97 -144 215 l-138 215 -199 0 -198 0 0 -380z"/>
<path d="M6270 3030 l0 -380 178 2 177 3 3 163 2 162 71 0 c97 0 128 -17 131
-73 1 -23 1 -53 0 -67 0 -14 1 -54 4 -88 9 -101 11 -102 214 -102 94 0 170 1
170 3 0 1 -7 20 -15 42 -9 26 -14 81 -15 153 l0 114 -31 29 c-19 18 -56 37
-92 46 l-60 17 44 11 c103 27 140 64 146 147 5 70 -18 115 -75 146 -76 42
-169 51 -524 52 l-328 0 0 -380z m534 246 c25 -10 36 -22 41 -45 9 -44 -2 -84
-28 -101 -28 -18 -144 -31 -174 -19 -21 8 -23 14 -23 87 0 43 3 82 7 85 12 13
143 7 177 -7z"/>
<path d="M10050 3030 l0 -382 333 5 c292 4 341 7 405 25 122 34 173 81 187
172 15 99 -38 160 -164 190 l-65 16 62 22 c106 39 146 104 121 197 -15 52 -54
86 -125 110 -53 18 -93 20 -406 23 l-348 3 0 -381z m523 237 c23 -15 27 -25
27 -62 0 -69 -39 -95 -146 -95 l-44 0 0 91 0 91 68 -4 c43 -2 79 -10 95 -21z
m-3 -292 c36 -19 50 -43 50 -89 0 -81 -33 -106 -140 -106 l-69 0 -3 93 c-2 50
-2 98 0 105 6 18 126 16 162 -3z"/>
<path d="M11186 3202 c-43 -114 -90 -236 -103 -272 -13 -36 -29 -74 -34 -85
-5 -11 -22 -57 -39 -103 l-30 -82 177 2 177 3 18 63 19 62 124 0 c139 0 137 1
150 -75 4 -22 12 -46 18 -52 12 -16 367 -19 367 -3 0 5 -31 91 -70 189 -38 99
-70 183 -70 186 0 3 -11 31 -25 61 -14 30 -25 59 -25 65 0 5 -21 64 -46 130
l-47 119 -241 0 -241 0 -79 -208z m339 8 c29 -108 63 -275 58 -282 -6 -11
-161 -10 -167 0 -3 5 4 44 15 88 11 43 29 115 40 159 23 94 28 109 33 104 2
-2 12 -33 21 -69z"/>
<path d="M12082 3033 l3 -378 375 0 375 0 0 70 0 70 -197 3 -198 2 0 305 0
305 -180 0 -180 0 2 -377z"/>
<path d="M6683 2379 c-107 -25 -113 -141 -9 -179 71 -27 96 -40 96 -54 0 -34
-70 -44 -146 -21 -18 6 -22 1 -28 -26 -3 -18 -4 -34 -1 -37 2 -3 28 -9 57 -13
119 -19 218 32 218 112 0 31 -41 65 -109 89 -69 25 -78 34 -61 55 8 10 32 15
71 15 49 0 60 3 70 21 7 13 7 25 1 31 -14 14 -111 18 -159 7z"/>
<path d="M9163 2380 c-117 -24 -180 -111 -153 -211 23 -83 91 -122 215 -122
120 0 125 3 125 72 0 32 3 73 6 90 l7 32 -74 -3 c-72 -3 -74 -4 -77 -30 -3
-22 1 -28 16 -28 27 0 45 -25 37 -50 -5 -15 -15 -20 -41 -20 -83 0 -135 65
-111 136 18 55 64 77 149 70 l67 -5 6 30 c4 17 5 32 3 34 -9 9 -138 13 -175 5z"/>
<path d="M9895 2371 c-160 -74 -133 -290 41 -322 190 -36 315 147 194 284 -49
57 -157 74 -235 38z m146 -77 c19 -21 24 -36 24 -81 0 -48 -4 -58 -28 -79 -63
-54 -137 -10 -137 81 0 39 22 90 42 98 34 14 75 6 99 -19z"/>
<path d="M10720 2382 c-30 -2 -57 -7 -60 -12 -3 -4 -5 -77 -5 -162 l1 -153 52
-3 52 -3 0 55 0 54 53 7 c74 10 113 29 131 64 55 105 -33 165 -224 153z m111
-72 c29 -16 25 -58 -7 -70 -51 -20 -64 -14 -64 28 0 21 3 42 7 45 10 10 42 8
64 -3z"/>
<path d="M5264 2367 c-2 -7 -3 -80 -2 -162 l3 -150 43 -3 42 -3 0 165 0 166
-40 0 c-24 0 -43 -5 -46 -13z"/>
<path d="M5450 2215 l0 -165 45 0 45 0 0 113 1 112 22 -38 c12 -21 43 -72 69
-113 l48 -75 51 3 52 3 1 163 1 162 -49 0 -49 0 7 -107 c4 -74 3 -103 -4 -93
-6 8 -34 56 -64 105 l-53 90 -62 3 -61 3 0 -166z"/>
<path d="M5850 2372 c0 -10 31 -96 78 -217 l39 -100 55 -3 c36 -2 58 2 65 10
5 7 27 58 48 113 51 135 75 199 75 202 0 2 -22 3 -48 3 l-48 0 -22 -62 c-12
-35 -28 -89 -37 -120 -9 -32 -20 -58 -23 -58 -4 0 -24 54 -45 120 l-38 120
-50 0 c-27 0 -49 -4 -49 -8z"/>
<path d="M6270 2215 l0 -165 130 0 130 0 0 35 0 35 -80 0 -80 0 0 35 0 35 69
0 69 0 4 30 c3 17 2 32 0 35 -3 3 -36 5 -74 5 l-69 0 3 28 c3 26 5 27 76 30
l72 3 0 29 0 30 -125 0 -125 0 0 -165z"/>
<path d="M6917 2373 c-4 -3 -7 -17 -7 -29 0 -21 5 -23 53 -26 l52 -3 5 -130 5
-130 40 0 40 0 5 130 5 130 51 3 c49 3 51 4 52 32 l1 30 -148 0 c-81 0 -151
-3 -154 -7z"/>
<path d="M7295 2368 c-2 -7 -7 -69 -10 -138 -4 -69 -8 -136 -9 -150 -1 -22 3
-25 40 -28 50 -4 54 4 54 128 0 105 12 130 29 63 7 -26 22 -78 34 -115 l21
-68 37 0 38 0 36 112 c20 62 39 116 42 121 13 21 20 -20 22 -120 1 -59 4 -110
7 -115 3 -4 23 -8 46 -8 l41 0 -7 113 c-4 61 -9 136 -13 165 l-5 53 -66 -3
-66 -3 -22 -75 c-12 -41 -25 -88 -28 -103 -11 -48 -27 -26 -51 71 -13 50 -27
96 -30 102 -9 15 -135 13 -140 -2z"/>
<path d="M7800 2215 l0 -165 131 0 130 0 -3 33 -3 32 -75 3 c-41 2 -79 7 -84
12 -5 5 -6 20 -2 34 6 25 10 26 76 26 l70 0 0 30 c0 34 -19 43 -89 38 -32 -2
-46 1 -54 14 -21 32 8 48 84 48 l69 0 0 30 0 30 -125 0 -125 0 0 -165z"/>
<path d="M8142 2218 l3 -163 35 0 35 0 3 113 c1 62 7 112 12 112 5 0 19 -19
31 -42 12 -24 42 -76 67 -116 l45 -73 46 3 46 3 3 163 2 162 -42 0 -43 0 3
-106 c4 -116 -2 -124 -40 -51 -11 23 -38 68 -60 100 l-39 57 -55 0 -54 0 2
-162z"/>
<path d="M8530 2350 c0 -29 2 -30 43 -30 24 0 48 -5 55 -12 8 -8 12 -53 12
-136 l0 -123 48 3 47 3 3 125 c2 84 7 127 15 132 7 4 29 8 50 8 34 0 37 2 37
30 l0 30 -155 0 -155 0 0 -30z"/>
<path d="M9440 2214 l0 -165 47 3 46 3 1 60 c1 55 3 60 24 63 33 5 57 -21 72
-74 15 -52 22 -57 78 -52 l40 3 -20 63 c-10 35 -26 66 -34 69 -21 8 -18 18 16
51 34 34 37 57 14 91 -27 38 -74 51 -184 51 l-100 0 0 -166z m178 100 c46 -32
18 -77 -45 -72 -33 3 -38 6 -41 31 -6 53 39 74 86 41z"/>
<path d="M10250 2256 c0 -136 9 -159 70 -191 40 -21 137 -19 180 3 59 29 80
86 77 207 l-2 100 -47 3 -48 3 0 -113 c0 -136 -10 -158 -70 -158 -60 0 -70 22
-70 157 l0 113 -45 0 -45 0 0 -124z"/>
</g>
</svg>
